<?xml version="1.0" encoding="utf-8"?>
<!-- Generator: Adobe Illustrator 24.1.0, SVG Export Plug-In . SVG Version: 6.00 Build 0)  -->
<svg version="1.1" id="Layer_1" xmlns="http://www.w3.org/2000/svg" xmlns:xlink="http://www.w3.org/1999/xlink" x="0px" y="0px"
	 viewBox="0 0 125.3 125.3" style="enable-background:new 0 0 125.3 125.3;" xml:space="preserve">
<style type="text/css">
	.st0{fill:#212A30;}
</style>
<path class="st0" d="M123,62.1l-12-3.2c-0.5-5.9-2-11.8-4.6-17.1l8.8-8.8c1-1,1.2-2.6,0.4-3.8c-5-7.9-11.7-14.5-19.5-19.5
	C94.9,8.9,93.3,9,92.3,10l-8.8,8.8c-5.4-2.6-11.2-4.1-17.1-4.6l-3.2-12c-0.4-1.4-1.6-2.3-3.1-2.2c-9.3,0.4-18.4,2.8-26.7,7.1
	c-1.3,0.7-1.9,2.1-1.5,3.5l3.2,12C30.2,26,26,30.3,22.6,35.2l-12-3.2c-1.4-0.4-2.8,0.3-3.5,1.5C2.8,41.7,0.4,50.8,0,60.2
	c-0.1,1.4,0.9,2.7,2.3,3.1l12,3.2c0.5,5.9,2,11.8,4.6,17.1l-8.8,8.8c-1,1-1.2,2.6-0.4,3.8c5,7.9,11.7,14.5,19.5,19.5
	c1.2,0.8,2.8,0.6,3.8-0.4l8.8-8.8c5.4,2.6,11.2,4.1,17.1,4.6l3.2,12c0.4,1.4,1.6,2.3,3.1,2.2c9.3-0.4,18.4-2.8,26.7-7.1
	c1.3-0.7,1.9-2.1,1.5-3.5l-3.2-12c4.9-3.4,9.2-7.6,12.5-12.5l12,3.2c1.4,0.4,2.8-0.3,3.5-1.5c4.3-8.2,6.8-17.4,7.2-26.7
	C125.4,63.7,124.4,62.4,123,62.1z M67.9,82.2C57.1,85.1,46,78.7,43.1,67.9C40.2,57.1,46.6,46,57.4,43.1s21.9,3.5,24.8,14.3
	C85,68.2,78.6,79.3,67.9,82.2z"/>
</svg>
