<svg xmlns="http://www.w3.org/2000/svg" width="132.019" height="120" viewBox="0 0 132.019 120"><g transform="translate(-354.591 -190.522)"><path d="M394.865,212.728a11.146,11.146,0,0,0-2.55-22.141l-.068.008a11.113,11.113,0,0,0-9.556,12.4,11,11,0,0,0,12.12,9.742Zm90.11,52.545c-.487-.245-31.175-16.1-41.741-21.554a17.676,17.676,0,0,1-5.939-4.981l-8.072-10.576a5.6,5.6,0,0,0-2.43-1.836,4.686,4.686,0,0,0-1.943-.423,3.954,3.954,0,0,0-3.313,4.408,3.36,3.36,0,0,0,.347,1.2l6.773,8.607a5.322,5.322,0,0,1,.747,5.3l-3.855,9.466a5.119,5.119,0,0,1-5.973,2.96l-11.845-3.014a3.582,3.582,0,0,1-2.674-3.054l-.338-2.887a1.426,1.426,0,0,1,1.243-1.582l13.823-1.7a4.667,4.667,0,0,0,2.04-.592,5.307,5.307,0,0,0,2.17-7.106,5.176,5.176,0,0,0-5.139-2.8l-13.583,1.668a1.944,1.944,0,0,1-2.168-1.7l-1.16-9.766a11.053,11.053,0,0,0-12.189-9.733,11.181,11.181,0,0,0-9.586,12.431l3.239,27.065a11.4,11.4,0,0,0,2.718,6.122,1.513,1.513,0,0,1-.985,2.475l-15.874,1.932a8.7,8.7,0,0,0-7.039,5.429l-2.7,6.8a4.6,4.6,0,0,0,4.769,6.272c4.5-.485,9.912-.609,13.165.924a14.86,14.86,0,0,0,12.433.034,23.333,23.333,0,0,1,20.009-.037,14.97,14.97,0,0,0,12.481.034,23.344,23.344,0,0,1,20.015-.037h0a6.711,6.711,0,0,0,4.3.265c12.678-3.445,32.856-9.482,38.505-14.635,1.744-1.571,2.07-4.235-.229-5.384ZM354.591,303.579a5.66,5.66,0,0,0,7.946,5.2l.076-.035a19.093,19.093,0,0,1,16.492,0,19.081,19.081,0,0,0,7.986,1.774,19.334,19.334,0,0,0,8-1.774,19.075,19.075,0,0,1,16.481,0,19.145,19.145,0,0,0,7.989,1.774,19.351,19.351,0,0,0,8.023-1.773,19.026,19.026,0,0,1,16.462,0,19.327,19.327,0,0,0,8.02,1.773,19.093,19.093,0,0,0,7.989-1.774,19.439,19.439,0,0,1,8.245-1.872,18.754,18.754,0,0,1,8.144,1.872l.074.035a5.575,5.575,0,0,0,7.847-5.117v-.377a5.611,5.611,0,0,0-4.292-5.473,18.864,18.864,0,0,1-3.632-1.263,18.9,18.9,0,0,0-8.2-1.837,19.248,19.248,0,0,0-8.221,1.845,19.043,19.043,0,0,1-7.978,1.771,19.268,19.268,0,0,1-8.008-1.771,19.281,19.281,0,0,0-16.458,0,19.333,19.333,0,0,1-8.015,1.771,19.045,19.045,0,0,1-7.979-1.779,19.336,19.336,0,0,0-16.481,0,19.325,19.325,0,0,1-8,1.771,19.029,19.029,0,0,1-8-1.771,19.362,19.362,0,0,0-16.492,0,19.212,19.212,0,0,1-3.444,1.209,6,6,0,0,0-4.574,5.818Z" transform="translate(0 0)" fill="#65869c"/></g></svg>