<svg xmlns="http://www.w3.org/2000/svg" viewBox="0 0 265.46 95.74"><defs><style>.a{fill:#66869c;}.b{fill:#537386;}.c{fill:#ac2639;}.d{fill:#8f1a22;}.e,.f{isolation:isolate;}.f{font-size:18px;fill:#212a30;font-family:SFWADIMGIANT-ITALIC, SF WADIM GIANT;font-style:italic;}</style></defs><path class="a" d="M.3,43.53l0-43H9.72l0,33.3v.26h7.3v-.27L17,.48h9.48l0,33.3V34h7.31v-.26l0-33.3h9.46l0,43Z"/><path class="b" d="M43,.72H34.08l0,33v.52H26.28v-.53l0-33h-9l0,33v.53H9.49v-.52l0-33H.52l0,42.5,42.5,0L43,.72M43.55.2l0,43.55L0,43.79,0,.24H10l0,33.56h6.78l0-33.56h10l0,33.56h6.79l0-33.56Z"/><path class="a" d="M49.88,43.48l0-43H59.3l0,43Z"/><path class="b" d="M59,.71H50.1l0,42.51h8.94L59,.71m.52-.53,0,43.55h-10l0-43.55Z"/><path class="a" d="M66.56,43.41l0-14,23-19.08.56-.46h-.73l-22.88,0V.44l34.6,0v14l-23,19.08-.56.47h.72l22.89,0v9.47Z"/><path class="b" d="M100.86.67,66.78.7V9.64l22.62,0h1.46l-1.12.92-22.94,19V43.15l34.08,0V34.18l-22.63,0H76.81l1.12-.93,22.94-19V.67m.52-.52V14.52L78.26,33.67l23.15,0v10l-35.12,0,0-14.37L89.41,10.14l-23.14,0V.18Z"/><path class="a" d="M107.54,43.37l-.05-43,34.61,0,0,43h-9.46V35H117v8.37ZM132.65,9.84H117V25.53h15.68V9.84Z"/><path class="b" d="M141.84.63l-34.08,0,0,42.45h8.94V34.73h16.2v8.37h8.93l0-42.45M116.72,25.79V9.59h16.2v16.2h-16.2M142.36.11l0,43.49h-10V35.24H117.25v8.37h-10l0-43.49ZM117.24,25.27H132.4V10.1l-15.16,0Z"/><path class="a" d="M148.54,43.33l0-43,34.6,0,0,26.21H172l.44.44,10.7,10.71v5.6h-9.62L158.44,28.14l-.45-.45v.63l0,15ZM173.66,9.8h-.27l-15.15,0H158v7.31h.26l15.16,0h.26V9.8Z"/><path class="b" d="M182.85.6l-34.08,0,0,42.44h8.93v-16l.9.9,15,15.1h9.24V37.81L172.26,27.18l-.89-.89h11.5l0-25.68M157.72,17.39V9.56h.53l15.15,0h.53v7.83h-.52l-15.16,0h-.52M183.37.07l0,26.73H172.63L183.4,37.59v6h-10L158.26,28.32V43.59h-10l0-43.49ZM158.24,16.86H173.4V10.07H158.24Z"/><path class="a" d="M189.53,43.3l0-43,26.76,0,7.85,7.84,0,27.29-7.83,7.85ZM214.64,9.77H199V10l0,23.53v.26h.26l15.15,0h.27v-.26l0-23.52Z"/><path class="b" d="M216.14.57l-26.39,0,0,42.45,26.39,0,7.68-7.69,0-27.07L216.14.57M198.72,34.09v-.52l0-23.53V9.52h16.2V10l0,23.52v.52h-16.2M216.36,0l8,8,0,27.51-8,8-27.13,0,0-43.49ZM199.24,33.57l15.15,0V10H199.22Z"/><path class="a" d="M230.59,43.26V33.8h25.14V26.47h-.26l-24.88,0,0-26.21,34.54,0,.07,9.46-24.88,0H240v7.3h.26l24.87,0,0,26.2Z"/><path class="b" d="M264.84.52l-34,0,0,25.67,24.62,0H256v7.86H230.85V43l34.08,0,0-25.68-24.61,0h-.52V9.48h.52l24.61,0L264.84.52m.52-.52.07,10-25.14,0v6.78l25.14,0,0,26.72-35.13,0v-10h25.13V26.73l-25.14,0L230.3,0Z"/><path class="c" d="M.28,77.11l0-23.9,19.2,0,0,14.49H5.36V77.1Zm14.1-18.83h-9v4.33h9V58.28Z"/><path class="d" d="M19.2,53.45l-18.68,0,0,23.38H5.1V67.43H19.21v-14M5.09,62.88V58h9.55v4.85H5.09m14.63-10,0,15H5.62v9.42H0L0,53ZM5.62,62.36h8.5V58.54H5.61Z"/><path class="c" d="M24.42,77.08l0-23.89,19.2,0,0,23.9Zm14.1-18.82h-9v.27l0,13.21V72h9V58.26Z"/><path class="d" d="M43.34,53.43l-18.68,0,0,23.37H43.36l0-23.38M29.25,72.26v-.52l0-13.21V58h9.55v.52l0,13.21v.52H29.25M43.86,52.91l0,24.42H24.16l0-24.41ZM29.78,71.74h8.49V58.52H29.75Z"/><path class="c" d="M48.5,77.1l0-23.94h5.08V72h4.34v-.27l0-18.58H63l0,18.59V72h4.33v-.27l0-18.58h5.09l0,23.94Z"/><path class="d" d="M72.14,53.41H67.59V72.26H62.75v-.52l0-18.33H58.15l0,18.32v.53H53.31V53.42H48.74l0,23.41,23.4,0,0-23.41m.53-.53,0,24.46-24.45,0,0-24.46h5.61l0,18.85h3.81l0-18.84h5.62l0,18.85h3.81l0-18.84Z"/><path class="c" d="M77.42,77l0-23.9,19.21,0v5.09H82.48v4.33H91.9v5.07H82.72v.26l0,3.81V72H96.61V77Z"/><path class="d" d="M96.34,53.38l-18.68,0,0,23.38,18.68,0V72.2H82.43v-.52l0-3.81v-.52h9.19V62.8H82.23V58H96.34V53.38m.52-.52v5.61H82.75v3.81h9.41v5.6H83l0,3.81H96.87v5.61H77.16l0-24.42Z"/><path class="c" d="M101.53,77l0-23.9,19.2,0,0,14.49H114.3l.44.45,6,6v3h-5.24L107,68.52l-.44-.45V77Zm14.09-18.83h-9v4.33h9V58.19Z"/><path class="d" d="M120.44,53.36l-18.67,0,0,23.37h4.55V67.44l.9.9,8.36,8.4h4.87V74.12l-5.9-5.9-.9-.89h6.79v-14m-14.11,9.43V57.94h9.55v4.85h-9.56M121,52.84l0,15h-6l6,6.06v3.35h-5.61l-8.51-8.56v8.56h-5.61l0-24.42Zm-14.11,9.43h8.51V58.45h-8.51Z"/><path class="c" d="M125.63,77V71.91h14.12V67.57H125.62l0-14.48,19.17,0,0,5.08-13.85,0h-.26v4.33H131l13.85,0,0,14.49Z"/><path class="d" d="M144.51,53.34l-18.64,0v14H140v4.87H125.88v4.57l18.68,0,0-14-13.59,0h-.52V57.92H131l13.59,0,0-4.56m.52-.52,0,5.6-14.11,0v3.8h14.11l0,15-19.72,0V71.65h14.12V67.83H125.36l0-15Z"/><path class="c" d="M149.64,77l0-23.9,19.2,0,0,14.49H154.71V77Zm14.1-18.83h-9v4.33h9V58.15Z"/><path class="d" d="M168.55,53.32l-18.68,0,0,23.37h4.56V67.3h14.12l0-14m-14.1,9.43V57.9H164v4.85h-9.55m14.62-10,0,15H155v9.41h-5.61l0-24.43ZM155,62.22h8.51V58.41H155Z"/><path class="c" d="M173.77,77l0-23.9H193l0,23.9Zm14.1-18.82h-9v.27l0,13.2v.27h9V58.13Z"/><path class="d" d="M192.69,53.3l-18.68,0,0,23.37,18.68,0,0-23.37M178.61,72.13V71.6l0-13.2v-.53h9.55V72.12h-9.53m14.6-19.35,0,24.42H173.51l0-24.42ZM179.13,71.6h8.49V58.39H179.1Z"/><path class="c" d="M197.82,76.93l0-23.9L217,53V67.5h-6.41L211,68l6,6v3h-5.23l-8.44-8.49-.45-.45v9Zm14.1-18.82h-9v4.33h9V58.11Z"/><path class="d" d="M216.73,53.28H198.05l0,23.38h4.56V67.35l.89.9,8.37,8.41h4.86V74l-5.9-5.9-.89-.89h6.78v-14m-14.1,9.43V57.85h9.56V62.7h-9.55m14.62-10,0,15h-6.05l6.05,6v3.36h-5.61l-8.52-8.56v8.57h-5.61l0-24.42Zm-14.1,9.43h8.5v-3.8h-8.51Z"/><path class="c" d="M229,76.9V58.09h-7.19V53L241,53v5.09h-7v.27l0,18.55Z"/><path class="d" d="M240.77,53.26H222.09v4.56h7.18v.52l0,18.29h4.54l0-18.29v-.53h7V53.26m.53-.53v5.61h-7l0,18.81h-5.59l0-18.82h-7.18V52.75Z"/><path class="c" d="M246,76.89V71.81h14.12V67.46h-.27l-13.86,0V53l19.18,0,0,5.09H251.06V62.4h14.12l0,14.48Z"/><path class="d" d="M264.89,53.23l-18.66,0v14l13.6,0h.53v4.87H246.25v4.56l18.68,0v-14H250.8V57.81h14.11l0-4.57m.52-.52,0,5.61H251.33v3.81h14.12l0,15-19.73,0v-5.6h14.13V67.73H245.72v-15Z"/><g class="e"><text class="f" transform="translate(0.07 94.32)">Personal Watercraft</text></g></svg>