<svg xmlns="http://www.w3.org/2000/svg" width="120" height="120.005" viewBox="0 0 120 120.005"><path d="M117.4,92.737,89.957,65.293a17.4,17.4,0,0,0-20.015-3.258L44.959,37.053V22.5L14.961,0l-15,15,22.5,30H37.014L62,69.98a17.439,17.439,0,0,0,3.258,20.015L92.7,117.439a8.713,8.713,0,0,0,12.351,0L117.4,105.088a8.756,8.756,0,0,0,0-12.351ZM77.7,52.731A24.658,24.658,0,0,1,95.253,60L99.8,64.543a33.174,33.174,0,0,0,10.265-6.914,33.7,33.7,0,0,0,8.882-32.037,2.805,2.805,0,0,0-4.711-1.289L96.8,41.74,80.887,39.092,78.239,23.178,95.675,5.742a2.829,2.829,0,0,0-1.336-4.734A33.76,33.76,0,0,0,62.325,9.89,33.212,33.212,0,0,0,52.67,34.17L71.911,53.411a25.531,25.531,0,0,1,5.789-.68ZM53.349,71.949,40.061,58.661,4.344,94.4a15,15,0,1,0,21.21,21.21L54.521,86.644a25.167,25.167,0,0,1-1.172-14.694Zm-38.388,38.67a5.625,5.625,0,1,1,5.625-5.625A5.641,5.641,0,0,1,14.961,110.619Z" transform="translate(0.05)" fill="#ab2739"/></svg>