<?xml version="1.0" encoding="utf-8"?>
<!-- Generator: Adobe Illustrator 24.1.2, SVG Export Plug-In . SVG Version: 6.00 Build 0)  -->
<svg version="1.1"
	 id="Layer_1" xmlns:cc="http://web.resource.org/cc/" xmlns:dc="http://purl.org/dc/elements/1.1/" xmlns:inkscape="http://www.inkscape.org/namespaces/inkscape" xmlns:ns1="http://sozi.baierouge.fr" xmlns:rdf="http://www.w3.org/1999/02/22-rdf-syntax-ns#" xmlns:sodipodi="http://sodipodi.sourceforge.net/DTD/sodipodi-0.dtd" xmlns:svg="http://www.w3.org/2000/svg"
	 xmlns="http://www.w3.org/2000/svg" xmlns:xlink="http://www.w3.org/1999/xlink" x="0px" y="0px" viewBox="0 0 104.1 79.4"
	 style="enable-background:new 0 0 104.1 79.4;" xml:space="preserve">
<style type="text/css">
	.st0{fill:#F2C58C;}
</style>
<path class="st0" d="M16.1,2.3L36.9,8l11.5-8l4,1L41,9l63,17.3l-4.6,16.9L36.2,26C11.7,18.7,16.1,2.3,16.1,2.3"/>
<path class="st0" d="M70.8,45.6c-0.1-1.4-0.3-2.8-0.8-4l28.5,7.9L97.6,53L70.8,45.6L70.8,45.6z"/>
<path class="st0" d="M44.9,38.5c0.8-1.1,1.7-2.1,2.7-3L0,22.3v3.8L44.9,38.5z"/>
<path class="st0" d="M56.7,51c2.6,0,4.6-2.1,4.6-4.6s-2.1-4.6-4.6-4.6c-2.6,0-4.6,2.1-4.6,4.6C52,48.9,54.1,51,56.7,51z M103.1,79.4
	c-2.3,0-4.4-0.5-6.3-1.4c-2-0.9-4.2-1.4-6.5-1.4c-2.3,0-4.6,0.5-6.5,1.4c-1.9,0.9-4.1,1.4-6.4,1.4S73,78.9,71,78
	c-2-0.9-4.2-1.4-6.5-1.4c-2.3,0-4.6,0.5-6.5,1.4c-1.9,0.9-4.1,1.4-6.3,1.4c-2.2,0-4.4-0.5-6.3-1.4c-2-0.9-4.2-1.4-6.5-1.4
	c-2.3,0-4.5,0.5-6.5,1.4c-1.9,0.9-4.1,1.4-6.3,1.4c-2.2,0-4.4-0.5-6.4-1.4c-2-0.9-4.2-1.4-6.5-1.4S8.5,77.1,6.5,78
	c-1.9,0.9-4.1,1.4-6.3,1.4L0,41.6L52,56c-3.6-1.7-6.1-5.4-6.1-9.6c0-5.9,4.8-10.7,10.7-10.7c5.9,0,10.7,4.8,10.7,10.7
	c0,5.9-4.8,10.7-10.7,10.7c-0.4,0-0.7-0.1-1.1-0.1L103,70C103,70,103.1,79.4,103.1,79.4z"/>
</svg>
