<svg xmlns="http://www.w3.org/2000/svg" width="120" height="120" viewBox="0 0 120 120"><path d="M60,8a60,60,0,1,0,60,60A59.99,59.99,0,0,0,60,8Zm5.806,90.968v3.871a3.882,3.882,0,0,1-3.871,3.871H58.065a3.882,3.882,0,0,1-3.871-3.871V98.919a21.494,21.494,0,0,1-11.226-3.653,3.887,3.887,0,0,1-.556-6.1l2.9-2.734a3.925,3.925,0,0,1,4.766-.387A9.41,9.41,0,0,0,54.9,87.355H65.782c2.734,0,4.96-2.54,4.96-5.661A5.654,5.654,0,0,0,67.065,76.2L49.6,70.9a17.264,17.264,0,0,1-11.9-16.6c0-9.508,7.4-17.25,16.5-17.274V33.161a3.882,3.882,0,0,1,3.871-3.871h3.871a3.882,3.882,0,0,1,3.871,3.871v3.919a21.494,21.494,0,0,1,11.226,3.653,3.887,3.887,0,0,1,.556,6.1l-2.9,2.734a3.925,3.925,0,0,1-4.766.387A9.41,9.41,0,0,0,65.1,48.645H54.218c-2.734,0-4.96,2.54-4.96,5.661A5.654,5.654,0,0,0,52.935,59.8l17.419,5.3a17.264,17.264,0,0,1,11.9,16.6C82.306,91.2,74.9,98.919,65.806,98.968Z" transform="translate(0 -8)" fill="#f2c58c"/></svg>