<svg xmlns="http://www.w3.org/2000/svg" viewBox="0 0 95.94 135.99"><defs><style>.a{fill:#f2c58c;}.b{fill:#66869c;}.c{fill:#ac2639;}.d{fill:#8f1a22;}.e{fill:#486a7d;}</style></defs><rect x="65.34" y="50.6" width="7.37" height="8.94"/><rect x="49.57" y="82.6" width="7.37" height="6.61"/><path d="M95.94,46.16c-1.27,3.82-3.31,4-5.62,2.81-.62,1.27,1,3.53-1.65,3.67-1.41.07-1.13-1.57-1.86-2.6-1.12,2-2.93,3.06-4.21,5.27-1.26-1.06-2.42-1.5-2.11-4.22-.65-1.81-2.21-2.71-1.76-5.62-4.34-1-5.11,2-4.56,6.69A22.13,22.13,0,0,0,74.7,55l-.61.15c-.93-3.75-1.67-7.1-.28-9.62-.78-.32-2.34-.78-2.8-.34-1.1,2.24.24,4.65.5,6.71a3.6,3.6,0,0,1-.15,1.72c-1.69-1-.37-5-2.11-6,.1,1.31-.14,2.45,0,3.86l0,.31-.39.05a2.09,2.09,0,0,0-.28.24l0-.45a2.59,2.59,0,0,0-1,1.56L67,53a28.6,28.6,0,0,1,1.51-5.45c1.34-3.13,3.62-4.9,4.56-8.08C66.79,37.76,62.82,43,61.86,47.24c-.71,3.17.45,7.85-3.5,8.44-1.6-.28-1.54-4.67.34-4.57-.1,1.19-.55,2-.34,3.51,3.21-1.16,1.7-5.28,2.45-8.07a4.45,4.45,0,0,1,.24-.7c.68-1.56,2-2.6,2.22-4.23,1.61-1.08,3.37-2,3.86-4.22-5.23-1.46-6.69,4.57-9.49,4.93.35-2.93,3.51-3,4.21-5.63-3-1.4-5.55-1.13-8.43-2.44a10.74,10.74,0,0,1-3.51,3.16c-.25-1.77,1.3-1.75,1.41-3.16-1.85-.51-4.2-.49-6-1l0,.22-.54,0v-.19c-1.11,0-1.82,1.51-3.14,1.42a.9.9,0,0,1-.16,0s0-.1.05-.15a2.1,2.1,0,0,1,.13-.26.71.71,0,0,1,.1-.14,2.73,2.73,0,0,1,.33-.35l0,0c.56-.36,1.11-.75,1.64-1.16h0a2.27,2.27,0,0,0,1.06-2.24,9.2,9.2,0,0,0-5.07,2.18l-.25-.34c.8-.65,1.31-1.27,1.27-1.66s-.44-.39-.85-.45h-.08l-.16,0-.08,0c-.31-.06-.57-.15-.61-.42a.61.61,0,0,1,0-.19c.65-.88.28-2.77,2.11-2.46.24,1.34-1.43,1.7-.35,2.81,2.7.13,2.32-1,4.57-.71.31-.62,1-.89.7-2.11-2.63-2-4.44-4.93-7.73-6.31l.06-.4.29,0c-.15-.84.64-.76.35-1.75l.5-.09a3.52,3.52,0,0,1,.3,1.7c2,2.56,5.08,4.15,7.64,6.81-.59,2.19-.63,2.7-1.8,2.94.25,1,.17.78-.17,2.42,6.49.53,14.14,1.09,18.14,4.11A7.86,7.86,0,0,1,66.77,36c1.54-.14.91,1.89,2.1,2.11,1.67.26,2.42-.4,3.87-.36,1.29,0,1.35,1.23,2.11,1.76C83.47,40.14,87.4,45.46,95.94,46.16Zm-10.54.72c3.56-.79,7.76,4,9.14,0-5.76-.29-9.21-2.89-13.48-4.67a20.34,20.34,0,0,0-6.55-1.63c-.54,1.44-2,1.93-2.46,3.51,2.06-.42,4,.86,5.62.34,1.07-.33,1-1.68,1.76,0,.28-.48.28-1.24,1.17-1.1a.85.85,0,0,1,.23,0c-.3,1.34-1,2.33-.7,4.22,1.66,1.15.86,4.76,2.11,6.32,1.71-1.68.78-6,3.16-7Zm3.52,4.91c.79-1.52-.14-4-2.11-3.87.76,1.23.94,3,2.11,3.87Zm-4.22,0c.42-.49,2.09-2.78.35-3.16-.16.81-1.23,2.48-.35,3.17Z"/><path class="a" d="M94.54,46.87c-1.38,4.05-5.58-.78-9.13,0-2.39,1-1.46,5.34-3.16,7-1.25-1.56-.45-5.18-2.11-6.32-.26-1.89.4-2.89.7-4.23l-.23,0,.46-1.11C85.33,44,88.78,46.58,94.54,46.87Z"/><path class="a" d="M86.81,47.93c2-.11,2.9,2.34,2.11,3.86C87.76,51,87.57,49.15,86.81,47.93Z"/><path d="M22.83,30.47c.37-1.27.59-2.81-1.73-2.5-.12,1,1,2.46,0,3.15-.17-.5-.3-.93-.39-1.28,0-1,.34-2.12.38-3.09,0-.06,0-.13,0-.19-4.12-2.52-.69,2.92-.69,4.76a.86.86,0,0,1,0,.16c.15.61,2.34,3,4.71,4.48-.23-3.35-1.56-3.81-2.66-4.1A8.41,8.41,0,0,1,22.83,30.47Zm65.09,77.18c.19,3-5.8,6.4-8.42,8.08-3.57,2.3-10.18,6.38-14,7.74-6.3,2.23-12.57,2.25-18.62,5.3-2,1-4.46,3-7.72,4.22-1.34.5-3.07.76-4.56,1.41-2.63,1.14-6.95,3.39-7.73-1.05-.69-3.89,5.83-6.68,6.31-9.49.27-1.62-1.38-7.7-1.76-9.48-2-9.22-5.64-16-7.75-25.64a12.19,12.19,0,0,1-9.85-4.91c-.9-1.23-1.12-2.89-2.1-4.22-1.39-1.85-4.78-3.12-6.33-5.6a16.87,16.87,0,0,1-2.11-8.79c.2-2.47,1.71-4.89,3.5-7V55.38c.75-1.5,2.28-2.69,2.8-4.56,1-3.44-.29-8.42,3.86-10.19V38.52a15.66,15.66,0,0,0,3.16-2.47c-.76-1-.85-1.49,0-2.46.23-1.43-2-3.13-2.12-3.86-.4-1.78-.06-8,2.1-7.38.48-3.45-1.5-6.53-3.17-8.78A43.2,43.2,0,0,0,4.22,4.8C2.77,3.79.72,3.77,0,2,1.05-.16,4.71-.23,7.38.23s2.6.9,9.68,3c7.19,2.68,14.2,3.86,17.38,7.5,1.77,3.48,4.22,5.57,5.07,7.63l-.5.09a19,19,0,0,1-3.51-4.56,16.31,16.31,0,0,1-8.43,7.39l.22.28c1,1.33.46,1.4.41,4-1.36.65-1.79,2.06-1.69,4.16v.29c1.07,3.25,3.79,3.47,6.68,4.21a10.11,10.11,0,0,1,1.06.35,4.7,4.7,0,0,0,1.39-.22h0a12.6,12.6,0,0,0,4.35-2.28l.26.34c-2.31,1.7-4.47,3.61-8.6,2.62,1.71,1.7-.58,1.8-.85,3.35,3,2.31,4.93-.42,8.7-1.35.72-.46.89-1.45,1.76-1.75a1.77,1.77,0,0,0,1.76,1.4,2.15,2.15,0,0,0,2.11-2.16,1.49,1.49,0,0,0,0-.21,3.83,3.83,0,0,0,.14-.95l.53,0c.08,1.1.21,2.2.39,3.28.5.9,2.28.53,2.46,1.76-.33.38-1.3.1-1,1.06,1.52,2,3.67,3.34,3.16,7.37.47.72,1.87.48,2.12,1.4-1.42,1.28.86,3.1,1.41,4.57.23-1.41,1.43-1.84,1.4-3.52,2.23-1.51,2.6-4.89,5.25-6a11.25,11.25,0,0,1-.73,2c-1.55,3.29-4.26,5.42-5.58,8.94.78,1,2,1.55,2.81,2.46a1,1,0,0,1-1.05.7c1.49,2.73,4.47,5.06,3.53,9.13,1.34-1.2,2.08-2.85,3.15-4.57.9-1.42,2.47-3,3.16-4.57A22.37,22.37,0,0,0,67,53l.57.12c-.23,1-.14,2.19-.46,3.22A15.83,15.83,0,0,1,65,60.59c-1.12,1.69-5,6.47-4.91,8.09s1.73,2.38,3.17,3.15v2.83c1.52.71.26,4.19,2.1,4.35,1.45-.66,2.81-2.66,4.22-4.37.7-.78,1.06-1.17,1.41-.35a26.6,26.6,0,0,0,2.44-12.64c-.14-.59-.7-1.48-1-2.33a13.93,13.93,0,0,1,.59-1.9l.07.09c1.17,1.82.22,11.61.73,13.87,3-5.44,1.41-11.22.18-16.28L74.7,55c.7,2.84,1.75,5.86,1.86,9.3.12,3.84-3.45,12.62-4.14,13.62s-4.26,2.57-4.7,4,1.94,3,3.32,4.66c2.07,2.55,4.23,8.51,6.32,11.24a23.17,23.17,0,0,0,3.87,3.86c1.9,1.51,6.51,3.12,6.69,6Zm-1.41.35c0-1.26-1.88-3.11-3.51-3.16-1.88,0-4.64,2.71-6.33,4.22-4.15,3.74-7.29,6.7-11.93,9.15-2.24,1.17-4.61,3.38-7.37,2.46,2.78-1.55,5.4-2.67,7.9-4a34,34,0,0,0,3.33-2c3.45-2.39,5.92-5.5,9.12-8.08,1.28-1,3.08-1.64,3.86-3.17C75.75,101.13,74.74,94.85,72,90c-.18-.33-.37-.64-.57-1A62.47,62.47,0,0,0,67,83.19L67,83.12c-.58-.77-1.11-1.47-1.52-2,0,.15,0,.29,0,.43l-.1-.09a7.19,7.19,0,0,0,.3,2.77l-.58.19c-.93-3.19-1.17-7.08-2.71-9.54.31-1.34-.11-.54.26-2.65-.87,0-1.8-.57-2.81-1.76-1.65-2.24-.87-5.28-1.77-7.73s-3.2-3.51-3.86-5.61A1.8,1.8,0,0,0,55.2,56a2.92,2.92,0,0,1-2.47-2.1c-.55-1.9-1.74-3.16-2.47-4.57-.26-.51-.88-2.27-1-2.8-.94-3-1.4-5.66-3.87-7.74.76-.73,0-1.13-.35-1.75-1.22-.2-1.12.75-2.46.7-.6,0-1.42-.66-1.76-.7-.72-.08-1,.6-1.53.81a20.31,20.31,0,0,0-5.85,2.71c-1.34-.76-3.52-.7-3.86-2.46.21-1,1.47-.87,1.41-2.11-.78-.05-.76-.88-.71-1.75a5.59,5.59,0,0,1-4.76-3.06,5.48,5.48,0,0,1-.51-2.9c.19-2.19,3.53-4.16,1.4-6.33-3.69,1.14-7.46.77-10.54,1.06a50.06,50.06,0,0,0-.69,6c1.56.9,1.6,3.32,2.81,4.56-.42.53-1.46.41-1.4,1.41,2.07,1.09,2.78,3.55,6,3.51.68-.35.67-2.14,1.75-1.06-.78-3.67-5.59-3.3-4.92-8.42-.74-.86-1.57.31-2.11-.36,1.61-.92.24-2.68,1.4-3.86,3,.16,3.46,2.39,5,4-.32.62.13,1.55.68,2.65.88,1.73,2,3.9,1,6,1,.59,1.65-.55,2.11.7-.72,1.82-3.51-.57-4.21,1.06C22.93,41,24.82,40.63,25,42c-.11.83-1.23.65-1,1.76.91,1,2.94.8,3.16,2.45a3,3,0,0,1-2.11.36c1.8,3.05,7.43,4,6.34,8.77,1.41.7,2.7,2.28,3.83,3.14S37.66,60.79,39,61c2.38.3,4.1-1.23,7-1a43.07,43.07,0,0,1,5.88.92c1.54.35,3.68-.11,4.3,1.84-.6,1-2.67,1.74-4.12,1.45.18,1.15,2.26,1.09,2.37,3,.2,3.3-4.61,1.38-6.81-.11,1.45,3.92-1.55,4.09-3.34,4.85.46,3.57,2.31,5.66,3.84,8,1.4-.33,3.35-.7,3.86.7.48,1.77-.72,1.86-.69,3.17l-.52.09A5.74,5.74,0,0,1,51,81h-.05c-1.56.18-2.15-.61-3.8-.34-1.57-2.78-3.63-5.06-3.87-9.12-1.75-.39-1.43-2.82-3.17-3.16C39.58,74.62,43.48,80.62,44,86.6c.3,3.61.22,8.61-2.8,10.55-6.35-1.73-7.93-8.24-15.82-8.43-.33,1.73,1,4.33,1.06,5.27,0,.46.6.31.71.7.54,1.91.71,4.12,1.41,6.32,2.3,7.34,6.38,15.68,5.28,24.23a15.31,15.31,0,0,0,7.38-3.16C46,114,48.27,103.33,51,93.61c.34-1.21.22-3.24,1.75-3.86a102.77,102.77,0,0,1-10.5,32.34c2.45-.26,4.61-1.49,7-2.46,4.51-1.81,10.07-2.7,14.4-4.58,2.15-.94,4.64-4.16,6.86-4.35a16.11,16.11,0,0,1-6.18,4.85,48,48,0,0,1-8.07,3q-5.36,1.67-10.53,3.86c-6.34,2.6-16.18,3.41-17.2,11.26,2.88,2.44,6-1,8.78-2.11a47.56,47.56,0,0,0,6.32-2.47c6.46-3.36,12.54-4.56,20.37-7,4.42-1.4,8.36-4,11.94-6.34,3-2,10.52-4.87,10.53-7.73Zm-20-27.39c1.68.15,6.63-5.68,5.54-7-1.32,2.64-7.14,5.68-5.54,7Zm-12.74-13c.62-1-.4-1.66-1.76-2.28h0c-.76-.42-1.64-.73-2.4-1.09h0c-1.06-.55-1.87-1.21-1.81-2.14,0,0,0-.06,0-.1,1.34.86,5.87,2.63,7,.35a42.06,42.06,0,0,0-7-1.21c-5.3-.41-10.22.73-11.31,6.14,2.77.19,4.88-.28,5.62-2.11A3.65,3.65,0,0,0,45.37,68c-.24,1-1.54,1.87-.7,2.81,5.82-.82.33-5.15,1-7l.23.18c1.36,1.12,2.7,2.92,4.55,3.64C51.87,68.44,53.12,68.76,53.8,67.63ZM43.62,69.75c.13-1.54-1.13-1.68-2.11-2.11.19,1.17,1.16,2.8,2.11,2.11Zm-1,22.14c1.8,1-.06-8.8-2-14.8-.22.79-.11.56.18,2h0a2.67,2.67,0,0,0,.08.48h0c.09.46.18,1,.28,1.8a1,1,0,0,1-.25.29C39.72,78.34,39.6,74,38.34,69.39c-.07-.4-.38-.54-.7-.7-.37.33-.11,1.3-1,1.06.16,5,.64,10.76,2.18,15.43a16.14,16.14,0,0,0,3.82,6.71Zm-1,3.86c.64-3.5-2.24-5.88-3.52-8.79-2.46-5.6-2.36-13.22-2.47-21.07.74-1.36,1.9-2.3,2.1-4.21-.68-.43-1.78-1.35-2.45-.7-4.43,6-.56,17.15-.34,23.53-3.1-5.74-4.55-17.2-1.07-23.53-1.68-.28-2.27.54-3.87.36-3.47,6.13-1.08,16.39,0,23.18-.58.59-.92,1.43-2.1,1.4-3.48-2-3.85-15-2.47-14.39a11,11,0,0,1,.29,1.72c.41,4.3-.71,10.15,2.88,11.26C28.15,81,27.4,77,27.08,73.13c-.39-4.66-.15-9.14,2.13-12.51-1.28,0-2.08,1.29-3.16,1.76-3.47,1.55-7,1.74-9.48,3.53-1.12.82-1.7,3.07-3.51,2.46a13.23,13.23,0,0,1,6.33-5.27c2.72-1.23,6.69-1,8.42-3.53-2.81,1-5.8-.38-9.14,0-2.12,1-4.13,3.76-6.32,3.53,1.63-2.17,4.13-4.59,7.73-4.93,2.65-.26,5.27,1.57,7.38.33-2.54-1.8-7.41-3.11-7.39-6.3,2.66,1.55,4.11,4.32,7.39,5.25-.8-4-4.26-5.48-5.63-8.43,2.63.53,3.24,3.08,4.92,4.57.27-.9-1.37-1.61-.36-2.11,2.41,1.22,2.13,5.15,2.81,8.08,1.16.41,5,.91,5.63-.36-2.16-1.46-5.22-2-4.57-6.31C28,50.55,25,49,23.23,46.23c.47-.11.66-.5,1.4-.35-.58-1.89-3.07-2.3-1.41-4.57-.51-.3-1.12-.53-1.06-1.4-2.2-.21-3.66-2.8-5.27-2.46-.05,3.22,3.63,2.69,3.87,5.61-3.14-.23-3.29-3.49-5.62-4.55-1.61,1.24.92,3.52,0,4.92C13.72,43.67,14.28,42,13,42a14.28,14.28,0,0,0-2.1,9.49c-.55,1-1.5,1.43-2.1,2.81-.47,1.08-.19,2.54-.7,3.87-1,2.55-3.27,4.22-3.51,6.67a11.41,11.41,0,0,0,6,11.6c0-.56,0-1.22.71-1.06,1.63,2.86,1.86,5.5,3.52,7.73,3.84,5.15,11.51,3.7,17.92,6.29,2.54,2.49,4.74,5.33,8.79,6.33ZM33.17,15.62a11.4,11.4,0,0,0,1.6-2.55c-5.14-7-8.9-5.66-3.4-2.05a2.17,2.17,0,0,0-.4.46l-.27-.22a1.4,1.4,0,0,1,.1-.16,10,10,0,0,1-1.7-1,1,1,0,0,0-.51-.53,17.31,17.31,0,0,1-1.16-1.93,9.54,9.54,0,0,0-.66,2.29,6.87,6.87,0,0,0-.64.34c.5-1.2-.1-2.54-.16-3.35-2.39-1.15-3.58-.77-5.45-1.71-2.42,3.31-8,3.45-10.43.2-1,1.81,2.53,2.32,1.47,3.81-1.25,1.37.74,1.35,2.56,4.31.81-.14,1-2,1.54-2.34a4.35,4.35,0,0,1,2.95-.33c1.64.9.64,2.92-.61,3.2-1.47.28-2.28-1-3.47.16,1.66,1.55,3.41,4.95,2.85,7.8,5.55,1.25,12.37-2.2,15.79-6.39ZM17.79,13.55c1.67-.78,1.3-1.79.42-2.35a2.21,2.21,0,0,0-2.05.43C14.75,12.44,16.19,14.15,17.79,13.55ZM10.19,2.68c-1.17,4.45,8.11,7,9.49,2.1-1.82,1.32-4.47,2.32-7,1.06-1.21-.66-.88-2.87-2.46-3.16Zm.33-1.12C12.3,6.17,15.3,6.94,19.14,4.7,16.6,4.05,13.4,2.25,10.52,1.56ZM11.25,9c.39-1.23-2.15-2.54-2.84-1.94A2.44,2.44,0,0,0,9.67,8.73a1.26,1.26,0,0,0,1.49.33ZM8.9,6.49c1.54-.36.87-3.55.73-5.05C4.09-.1,1.3.94,1,2.26,3.23,2.85,6.29,6.33,8.9,6.49Z"/><path class="b" d="M83,104.84c1.63,0,3.52,1.9,3.51,3.16,0,2.86-7.5,5.76-10.53,7.73-3.58,2.34-7.52,4.93-11.93,6.34-7.84,2.48-13.91,3.68-20.37,7a47.69,47.69,0,0,1-6.33,2.47c-2.82,1.07-5.9,4.55-8.78,2.11,1-7.85,10.86-8.66,17.2-11.26q5.17-2.19,10.54-3.86a48.37,48.37,0,0,0,8.07-3l.9,1.13c-2.5,1.32-5.13,2.44-7.9,4,2.76.92,5.13-1.29,7.37-2.46,4.64-2.45,7.77-5.41,11.93-9.15C78.36,107.55,81.12,104.81,83,104.84Z"/><path class="a" d="M85.05,48.64c1.74.37.07,2.67-.35,3.16C83.82,51.11,84.89,49.43,85.05,48.64Z"/><path class="a" d="M81.06,42.21l-.46,1.11c-.89-.13-.89.62-1.17,1.1-.77-1.68-.69-.33-1.76,0-1.64.52-3.56-.76-5.62-.34.42-1.57,1.92-2.06,2.46-3.51A20.35,20.35,0,0,1,81.06,42.21Z"/><path class="b" d="M81.59,103.44c-.79,1.53-2.58,2.14-3.86,3.17-3.2,2.58-5.67,5.69-9.13,8.08a32.89,32.89,0,0,1-3.33,2l-.89-1.13a16.19,16.19,0,0,0,6.18-4.85c-2.22.19-4.72,3.41-6.87,4.35-4.33,1.88-9.89,2.77-14.4,4.58-2.42,1-4.58,2.2-7,2.46a103.23,103.23,0,0,0,10.5-32.33c-1.53.62-1.41,2.65-1.75,3.86-2.74,9.73-5,20.39-9.81,28.48a15.2,15.2,0,0,1-7.38,3.15c1.1-8.54-3-16.88-5.28-24.23-.7-2.2-.86-4.4-1.41-6.32-.11-.38-.67-.24-.71-.7-.09-.93-1.39-3.54-1.06-5.27,7.89.19,9.47,6.7,15.82,8.43,3-1.93,3.1-6.93,2.8-10.55-.49-6-4.4-12-3.88-18.25,1.74.35,1.42,2.78,3.17,3.16.24,4.07,2.3,6.34,3.87,9.12A8.89,8.89,0,0,0,51,81h0a5.71,5.71,0,0,0-.15,2.9,5.65,5.65,0,0,0,7.54,3.77c.92,1.55.89,4.68.35,6.67,1.45,1.8,3.75,1.1,5.63,2.82,0,1.13-.87,2.06-.7,4.21,1.18,1.55,3.72.19,4.92-.36,2.13.56,2.65,2.73,5.27,2.8,1-1.3-1.4-1.46-1.76-2.45-.83-2.08.32-4.3,0-6.33s-3-3.9-1-4.92L72,90C74.74,94.85,75.76,101.13,81.59,103.44ZM48.37,96.86c.07-.25.13-.51.19-.77-.45,0-.49-.45-1.05-.35a1.77,1.77,0,0,1-.35,1.06c-1.28,3.81-1.71,7.63-3.15,10.89a10.58,10.58,0,0,1-.48,1c-.1.2-.22.4-.34.62l-.19.32-.26.41c-.92,1.44-2,2.77-2.84,4.19a.05.05,0,0,0,0,0,19.15,19.15,0,0,0-2.1,3.75q.94-1.05,1.83-2.19C44.52,111.45,46.58,104.29,48.37,96.86Z"/><path class="b" d="M72.9,51.76c.6,4.15,2.7,8.43,2,12.34-.5-2.24-.49-5-1.7-6.58a.61.61,0,0,0-.07-.1c-.8.42-.82,1.14-.59,1.9a10.23,10.23,0,0,0-.11,4.44c.35,4.32-1.38,9.2-2.79,10.89-1.17,1.31-2.41,2.86-3.86,3.52-1.84-.16-.2-3.79-2.46-3.51V71.84c-1.44-.77-3-1.67-3.17-3.16s3.8-6.4,4.91-8.08a15.89,15.89,0,0,0,2.11-4.22c.49-1.52.3-3.2,1.47-4.32.12,2.3-.06,5.32.53,7.17a2.83,2.83,0,0,0,.11.31c2.37-1.57.43-4.95,0-7.77,0-.1,0-.21,0-.31-.14-1.41.1-2.55,0-3.86,1.75.94.42,5,2.11,6a3.55,3.55,0,0,0,.15-1.71Z"/><path class="b" d="M74.88,64.1c.73-3.91-1.38-8.19-2-12.34a9.75,9.75,0,0,1,.9-6.28c-1.38,2.52-.64,5.87.28,9.63,1.24,5,2.78,10.83-.17,16.27-.51-2.25.44-12-.73-13.86C74.39,59.08,74.37,61.86,74.88,64.1Z"/><path d="M72.1,101.34c.36,1,2.8,1.16,1.76,2.45-2.61-.07-3.14-2.24-5.27-2.8-1.2.55-3.74,1.92-4.91.36-.18-2.14.74-3.07.69-4.21-1.88-1.71-4.18-1-5.62-2.81.53-2,.56-5.13-.36-6.68a5.33,5.33,0,0,1-2.12.4V87.3c.92-.13,1.06-1,2.11-1,2.17,1.32,2.25,5.06,1.76,8.08,1.55-.24,3.29.74,4.92,1.4,1.14,1.42-.7,3.92,0,4.91,1.67.93,2.4-.76,3.51-1.4.92.62,1.52,1.52,2.47,2.11-1-2.31.34-5.48-.37-7.73-.46-1.51-2.17-1.32-2.1-2.81.11-.48.5-.67.34-1.41-2.16-.73-3.21-2.69-3.89-5l.58-.19h0a10.37,10.37,0,0,0,4.89,5.63q.27.15.54.27c-2,1,.71,2.84,1,4.92S71.27,99.27,72.1,101.34Z"/><path d="M73.47,61.64A26.49,26.49,0,0,1,71,74.29c-.35-.82-.71-.43-1.41.35C71,73,72.76,68.07,72.41,63.75a10.19,10.19,0,0,1,.11-4.43C72.77,60.16,73.33,61.06,73.47,61.64Z"/><path class="b" d="M72.91,51.76l-1.4.09c-.27-2.05-1.61-4.47-.5-6.71.46-.43,2,0,2.8.34A9.62,9.62,0,0,0,72.91,51.76Z"/><path class="b" d="M73.12,57.42a13.07,13.07,0,0,0-.6,1.9C72.3,58.56,72.32,57.84,73.12,57.42Z"/><path class="b" d="M72.08,73.58c1.09,1.36-3.86,7.18-5.54,7C64.94,79.26,70.76,76.22,72.08,73.58Z"/><path class="b" d="M72,90,71,90.1l-.53-.28c-2.7-1.52-5.23-4.62-5.1-8.31A19.46,19.46,0,0,1,67,83.11l.06.08c1.5,1.94,3.35,4.29,4.37,5.87C71.6,89.37,71.79,89.68,72,90Z"/><path class="b" d="M73.1,39.51c-.93,3.18-3.21,5-4.56,8.08A28.58,28.58,0,0,0,67,53a21.71,21.71,0,0,1-1.3,4.39C65.05,59,63.48,60.58,62.58,62c-1.07,1.72-1.81,3.37-3.15,4.57,1-4.07-2-6.4-3.53-9.13a1,1,0,0,0,1.06-.7c-.85-.9-2-1.48-2.81-2.46,1.31-3.52,4-5.65,5.58-8.94l1.33.51a5.83,5.83,0,0,0-.25.7c-.74,2.79.76,6.91-2.45,8.08-.21-1.49.25-2.32.35-3.51-1.89-.1-2,4.28-.35,4.56,4-.59,2.8-5.27,3.51-8.43C62.82,43,66.79,37.76,73.1,39.51Z"/><path class="c" d="M70.69,93.61c.7,2.25-.69,5.42.36,7.73-1-.58-1.55-1.49-2.46-2.11-1.11.65-1.85,2.34-3.51,1.4-.72-1,1.13-3.49,0-4.91-1.64-.66-3.37-1.64-4.92-1.4.48-3,.4-6.75-1.77-8.07-1,0-1.19.91-2.11,1-2.22-.58-3.06-2.54-4.91-3.5,0-1.3,1.18-1.39.69-3.16-.51-1.41-2.46-1-3.86-.7-1.52-2.37-3.37-4.46-3.83-8,1.78-.76,4.78-.93,3.34-4.86,2.2,1.5,7,3.42,6.81.12-.12-1.91-2.19-1.85-2.37-3,1.44.28,3.52-.4,4.11-1.45-.62-2-2.75-1.49-4.29-1.84A43.31,43.31,0,0,0,46.09,60c-2.94-.2-4.67,1.33-7,1-1.37-.18-2.89-1.71-3.89-2.47s-2.43-2.44-3.84-3.14c1.09-4.81-4.53-5.72-6.33-8.77a3.06,3.06,0,0,0,2.11-.36c-.23-1.65-2.25-1.49-3.17-2.45-.17-1.11.94-.93,1.05-1.76-.14-1.38-2-1-1.75-2.81.69-1.64,3.49.76,4.21-1.06-.46-1.26-1.15-.11-2.11-.7,1.05-2.13-.11-4.3-1-6l1.14-.19a5.56,5.56,0,0,0,4.75,3.06c0,.87-.06,1.7.72,1.75.06,1.24-1.2,1.16-1.42,2.11.34,1.77,2.52,1.7,3.87,2.46a20.36,20.36,0,0,1,5.84-2.71c.55-.2.81-.89,1.53-.81.34,0,1.17.68,1.76.7,1.34.05,1.24-.91,2.46-.7.31.62,1.11,1,.35,1.75,2.47,2.08,2.93,4.78,3.87,7.73.17.54.8,2.3,1.06,2.81C51,50.79,52.19,52,52.74,54a2.94,2.94,0,0,0,2.47,2.1,1.8,1.8,0,0,1-1.06,1.05c.67,2.1,3,3.26,3.87,5.61s.11,5.49,1.76,7.73c1,1.19,1.94,1.81,2.82,1.76-.38,2.11,0,1.31-.27,2.65,1.54,2.46,1.78,6.35,2.71,9.54.68,2.33,1.72,4.28,3.89,5,.16.74-.24.93-.35,1.41C68.51,92.3,70.22,92.11,70.69,93.61Z"/><path d="M68.89,51.81c.19,2.37-.35,5.47.26,7.42-.6-1.86-.41-4.87-.54-7.18A3.22,3.22,0,0,1,68.89,51.81Z"/><path d="M67,83.2a59.33,59.33,0,0,1,4.36,5.86C70.37,87.48,68.52,85.14,67,83.2Z"/><path class="b" d="M68.58,51.6l0,.45c-1.17,1.13-1,2.8-1.46,4.33.33-1,.23-2.2.46-3.22A2.66,2.66,0,0,1,68.58,51.6Z"/><path class="b" d="M65.76,78.17c1.45-.67,2.69-2.21,3.86-3.53-1.4,1.7-2.77,3.7-4.22,4.37-1.84-.16-.58-3.64-2.1-4.35C65.56,74.38,63.92,78,65.76,78.17Z"/><path class="b" d="M57.65,42.34c2.79-.36,4.26-6.39,9.48-4.93-.48,2.21-2.24,3.14-3.86,4.22-.25,1.62-1.54,2.67-2.21,4.23l-1.34-.51a11.6,11.6,0,0,0,.74-2c-2.67,1.08-3,4.47-5.26,6,0,1.68-1.18,2.11-1.4,3.52-.55-1.46-2.82-3.29-1.41-4.57-.25-.92-1.65-.68-2.11-1.4.5-4-1.65-5.38-3.16-7.37-.26-.95.71-.68,1-1.06-.18-1.23-2-.85-2.46-1.75-.18-1.09-.31-2.19-.39-3.29a1.85,1.85,0,0,1,0-.23c1.78.56,4.13.55,6,1.06-.12,1.41-1.66,1.39-1.41,3.15a10.84,10.84,0,0,0,3.51-3.16c2.88,1.32,5.43,1.05,8.43,2.45C61.15,39.29,58,39.41,57.65,42.34Z"/><path d="M70.51,89.82a10.37,10.37,0,0,1-4.89-5.63h0a7.19,7.19,0,0,1-.3-2.77l.1.09C65.28,85.2,67.81,88.3,70.51,89.82Z"/><path d="M65.44,81.09c.4.56.93,1.26,1.52,2a16.73,16.73,0,0,0-1.55-1.6Z"/><path class="a" d="M52,65.35c1.36.62,2.39,1.27,1.77,2.28A3,3,0,0,0,52,65.35Z"/><path class="a" d="M54.86,62.36c-1.16,2.28-5.69.52-7-.34l.07-.87A42.06,42.06,0,0,1,54.86,62.36Z"/><path class="a" d="M53.81,67.63c-.69,1.13-1.94.81-3.31,0A4.72,4.72,0,0,0,53.81,67.63Z"/><path class="a" d="M53.81,67.63a4.72,4.72,0,0,1-3.31,0A50,50,0,0,1,46,64a2.11,2.11,0,0,0-.23-.19c-.71,1.88,4.78,6.21-1,7-.85-.94.46-1.86.7-2.81a3.65,3.65,0,0,1-3.17-2.81c-.74,1.83-2.85,2.3-5.62,2.11,1.08-5.41,6-6.55,11.31-6.14l-.07.87s0,.06,0,.1c-.09,1.06.74,1.64,1.81,2.13h0c.75.4,1.63.74,2.4,1.09h0A3,3,0,0,1,53.81,67.63Z"/><path d="M47.15,80.64c1.65-.27,2.24.52,3.8.35A8.89,8.89,0,0,1,47.15,80.64Z"/><path d="M49.63,64.26c.76.36,1.64.67,2.4,1.08C51.26,65,50.39,64.66,49.63,64.26Z"/><path d="M48.56,96.09c-.06.25-.12.52-.19.77a51.83,51.83,0,0,1-8.77,18.91c-.27.25-.56.48-.85.71a13.58,13.58,0,0,1,1.12-2.26l0,0c.94-1.39,2-2.81,2.84-4.18l.26-.42a3.37,3.37,0,0,0,.19-.32c.12-.2.24-.4.34-.61a9.28,9.28,0,0,0,.47-1c1.45-3.27,1.88-7.08,3.16-10.9a1.72,1.72,0,0,0,.35-1.05C48.07,95.64,48.12,96.07,48.56,96.09Z"/><path class="a" d="M47.82,62.12c-.07.93.75,1.58,1.8,2.14C48.56,63.76,47.73,63.18,47.82,62.12Z"/><path class="a" d="M39,18.46c.3,1-.5.91-.35,1.76l-.29,0c-2.37-.32-6,.29-7.43,1.82-.17,1.33,1.86,1.54.7,2.8a7.65,7.65,0,0,1,4.91-.7c0,.5-.06,1,.36,1.05-.12,1.29-2,.83-2.82,1.4-.1.81,1,.39,1.07,1.06.13,0,.26,0,.38,0l.28-.06a1.47,1.47,0,0,0,.28-.08l.24-.1.19-.1c1.95-1.18.57-4.86,1.77-6.66C41.6,22,43.41,24.84,46,26.88c.28,1.22-.39,1.49-.7,2.11-2.05-.9-2.82.42-4.57.71-1.08-1.11.59-1.46.35-2.81-1.83-.3-1.46,1.58-2.11,2.46a.6.6,0,0,0,0,.19c0,.31.31.38.61.42l.08,0,.16,0h.08c.24,0,.45.13.48.39.14,1.1-1.68,1.43-1.75.36-1,1.43-1.71,3.05-3.5,3.64h0a5.93,5.93,0,0,1-1.39.22c-.25-3.38-2.22-5-4.57-6.31-.63,2.44,3.71,2.78,3.52,6A14.28,14.28,0,0,1,26,30.06l0-.29a3.6,3.6,0,0,1,2.48-3.58c0-2.65-.14-3.23-1.19-4.62l-.22-.29a16.27,16.27,0,0,0,8.42-7.38A19,19,0,0,0,39,18.46Zm.71,5.27c.17-.91-1.25-2-1.76-1.06.9,0,.37,1.51,1.76,1.06Z"/><path class="a" d="M50.5,67.6C48.65,66.88,47.31,65.08,46,64A50,50,0,0,0,50.5,67.6Z"/><path d="M48.38,96.86c-1.8,7.43-3.85,14.59-8.77,18.91A52.16,52.16,0,0,0,48.38,96.86Z"/><path class="c" d="M44.84,30.28a2.26,2.26,0,0,1-1.06,2.24,2,2,0,0,0,.5-1.76c-5.42.31-5.77,5.7-12.29,4.93,1.72,1.69-.78,1.25-1,2.8,2.95,2.31,4.64-1.94,8.07-1.4-3.77.92-5.75,3.66-8.7,1.35.26-1.56,2.56-1.66.84-3.35,4.14,1,6.3-.92,8.6-2.63A9.23,9.23,0,0,1,44.84,30.28Z"/><path class="a" d="M45.34,29c-2.25-.3-1.87.83-4.57.7C42.52,29.41,43.3,28.09,45.34,29Z"/><path class="c" d="M44.79,33.23v.19a4.36,4.36,0,0,1-.14.95v-.1c-1.11,0-1.7.55-3,.37C43,34.74,43.67,33.24,44.79,33.23Z"/><path class="c" d="M44.64,34.27v.1a2.89,2.89,0,0,1-2.1,2.36,1.75,1.75,0,0,1-1.76-1.4l.7-.7.16,0C43,34.82,43.53,34.28,44.64,34.27Z"/><path class="c" d="M44.29,30.76a2,2,0,0,1-.5,1.76h0c-.54.41-1.17.74-1.65,1.16l0,0a2.11,2.11,0,0,0-.32.35.49.49,0,0,0-.1.15.79.79,0,0,0-.13.26l-.06.15-.7.7c-.86.3-1,1.3-1.75,1.76-3.43-.54-5.12,3.71-8.07,1.4.26-1.55,2.76-1.11,1-2.8C38.52,36.46,38.86,31.07,44.29,30.76Z"/><path class="a" d="M41.51,67.64c1,.43,2.24.57,2.11,2.11C42.67,70.44,41.7,68.8,41.51,67.64Z"/><path d="M43.53,108.64c-.1.21-.22.41-.34.61C43.31,109.05,43.43,108.84,43.53,108.64Z"/><path d="M43,109.57l.19-.32A3.37,3.37,0,0,1,43,109.57Z"/><path class="b" d="M40.59,77.09c1.93,6,3.79,15.77,2,14.8.06-5.1-.15-9.93-1.76-13.35a1.3,1.3,0,0,0,0,.52C40.48,77.65,40.37,77.89,40.59,77.09Z"/><path class="c" d="M42.54,36.73a2.9,2.9,0,0,0,2.1-2.36,2.13,2.13,0,0,1-1.89,2.35Z"/><path class="b" d="M40.82,78.53c1.61,3.42,1.82,8.26,1.77,13.36a16.33,16.33,0,0,1-3.82-6.7l.68-.22a4,4,0,0,0,.67,1.3,10.48,10.48,0,0,0-.64-5.91l.69-.26c.2.55.41,1.08.65,1.59l.07,0c.12.34.25.68.4,1,0-.48-.1-.9-.16-1.29.27-.5-.08-1.13-.27-1.79v0q0-.27-.09-.48h0A1.35,1.35,0,0,1,40.82,78.53Z"/><path class="d" d="M43.77,32.53a18.72,18.72,0,0,1-1.65,1.15C42.6,33.27,43.24,32.94,43.77,32.53Z"/><path class="c" d="M42.09,33.72a2.2,2.2,0,0,0-.33.35A1.56,1.56,0,0,1,42.09,33.72Z"/><path class="c" d="M41.66,34.21a2.1,2.1,0,0,0-.13.26A2.1,2.1,0,0,1,41.66,34.21Z"/><path d="M39.9,114.17c.87-1.42,1.92-2.74,2.84-4.18C41.88,111.36,40.84,112.78,39.9,114.17Z"/><path class="b" d="M38,87c1.27,2.91,4.16,5.29,3.52,8.79-4-1-6.25-3.84-8.79-6.33-6.42-2.6-14.08-1.14-17.93-6.29-1.65-2.23-1.88-4.87-3.51-7.73-.75-.16-.67.49-.71,1.06a11.43,11.43,0,0,1-6-11.6c.25-2.45,2.54-4.12,3.51-6.67.51-1.33.23-2.79.7-3.87.61-1.38,1.55-1.8,2.11-2.81A14.22,14.22,0,0,1,13,42c1.25-.07.7,1.65,2.12,1.41.91-1.4-1.62-3.68,0-4.92,2.32,1.06,2.47,4.32,5.61,4.55-.23-2.92-3.91-2.39-3.86-5.61,1.61-.34,3.06,2.25,5.27,2.46-.06.87.54,1.1,1.06,1.4-1.67,2.27.82,2.68,1.4,4.57-.73-.15-.93.24-1.4.35,1.78,2.78,4.82,4.32,7,6.67-.65,4.28,2.41,4.85,4.57,6.31-.6,1.27-4.47.77-5.62.36-.69-2.93-.4-6.86-2.82-8.08-1,.5.63,1.21.36,2.12-1.68-1.49-2.29-4-4.92-4.57,1.37,2.94,4.83,4.39,5.63,8.42-3.28-.93-4.73-3.69-7.39-5.25,0,3.19,4.85,4.51,7.39,6.3-2.1,1.25-4.73-.6-7.38-.33-3.6.34-6.1,2.76-7.72,4.93,2.18.24,4.19-2.57,6.31-3.53,3.34-.39,6.33,1,9.14,0-1.73,2.58-5.7,2.3-8.42,3.53a13.23,13.23,0,0,0-6.33,5.27c1.82.6,2.39-1.64,3.51-2.46,2.43-1.79,6-2,9.49-3.53,1.07-.47,1.87-1.77,3.15-1.76C26.94,64,26.7,68.47,27.09,73.13l-1.43.12a11.36,11.36,0,0,0-.29-1.73c-1.38-.56-1,12.39,2.47,14.4,1.19,0,1.53-.82,2.1-1.4-1.1-6.8-3.49-17,0-23.18,1.6.18,2.19-.64,3.87-.36-3.48,6.33-2,17.8,1.07,23.53C34.64,78.13,30.77,67,35.2,61c.67-.64,1.78.28,2.45.7-.2,1.91-1.35,2.85-2.1,4.22C35.66,73.74,35.56,81.36,38,87Z"/><path class="b" d="M41.13,81.35c.06.38.11.81.16,1.29-.15-.32-.28-.66-.4-1A1,1,0,0,0,41.13,81.35Z"/><path class="e" d="M40.86,79.55c.19.67.55,1.3.27,1.8C41,80.6,41,80,40.86,79.55Z"/><path class="b" d="M40.89,81.64l-.07,0c-.24-.51-.45-1-.66-1.59a34.18,34.18,0,0,1-1.81-10.7C39.61,74,39.73,78.35,40.89,81.64Z"/><path class="a" d="M40.78,30.46c0,.39-.46,1-1.26,1.67a12.84,12.84,0,0,1-4.35,2.27c1.79-.59,2.56-2.2,3.5-3.64.07,1.08,1.89.74,1.75-.35,0-.26-.24-.35-.48-.39C40.35,30.07,40.74,30.14,40.78,30.46Z"/><path class="e" d="M40.77,79.06c0,.14.06.31.09.48A2,2,0,0,1,40.77,79.06Z"/><path d="M39.48,80.35a10.49,10.49,0,0,1,.64,5.91,4,4,0,0,1-.67-1.3c-.72-2.14-.46-5.25-1.09-7.48C38.7,78.32,39.12,79.3,39.48,80.35Z"/><path class="b" d="M40.17,80.1l-.69.25c-.36-1-.78-2-1.12-2.87.63,2.23.37,5.35,1.09,7.49l-.68.22c-1.54-4.68-2-10.4-2.18-15.43.95.24.69-.73,1.06-1.06.31.16.63.31.7.7A33.63,33.63,0,0,0,40.17,80.1Z"/><path class="a" d="M39.7,30a.9.9,0,0,1,.16,0Z"/><path d="M38,22.67c.51-.93,1.93.15,1.76,1.06C38.33,24.18,38.86,22.71,38,22.67Z"/><path d="M38.75,116.48c.29-.23.58-.46.86-.71-.59.77-1.2,1.49-1.83,2.19a19.08,19.08,0,0,1,2.1-3.74A12.89,12.89,0,0,0,38.75,116.48Z"/><path class="a" d="M39,29.54c0,.27.3.37.61.43C39.32,29.93,39,29.86,39,29.54Z"/><path d="M38.37,20.17l-.07.4c-1.14,1.31-.88,3.13-.94,4.58H36.9c-.41-.06-.38-.56-.35-1.05a7.65,7.65,0,0,0-4.91.7c1.15-1.26-.87-1.47-.7-2.8C32.35,20.46,36,19.85,38.37,20.17ZM36.9,21.63c-1.42-.13-1.61,1-2.46,1.41.93,1.26,2.12-.14,2.46-1.41ZM32,22.69c1.15,0,2.48.14,2.46-1.06C33.2,21.55,32.34,21.87,32,22.69Z"/><path class="a" d="M38.31,20.57c-1.2,1.8.18,5.49-1.78,6.66a2.39,2.39,0,0,0,.84-2.08C37.42,23.7,37.16,21.88,38.31,20.57Z"/><path d="M36.91,25.14h.46a2.39,2.39,0,0,1-.84,2.08.81.81,0,0,1-.18.1,1.09,1.09,0,0,1-.25.1,1.47,1.47,0,0,1-.28.08,1.4,1.4,0,0,1-.28.06c-.12,0-.25,0-.38,0,0-.67-1.17-.24-1.06-1.05C34.93,26,36.8,26.43,36.91,25.14Z"/><path class="b" d="M34.45,23c.84-.45,1-1.54,2.46-1.41C36.56,22.9,35.37,24.3,34.45,23Z"/><path class="a" d="M36.1,27.44l.24-.1Z"/><path class="a" d="M35.82,27.51l.28-.07A1.43,1.43,0,0,1,35.82,27.51Z"/><path class="a" d="M35.54,27.57l.28-.05Z"/><path class="c" d="M34.45,21.63c0,1.2-1.3,1-2.46,1.05C32.34,21.87,33.2,21.55,34.45,21.63Z"/><path class="a" d="M33.75,34.63a6,6,0,0,0,1.4-.22A4.71,4.71,0,0,1,33.75,34.63Z"/><path class="b" d="M34.77,13.07a11.4,11.4,0,0,1-1.6,2.55l-.49-.09a6.94,6.94,0,0,0-1.72-4,2.15,2.15,0,0,1,.4-.45C25.87,7.41,29.63,6.1,34.77,13.07Z"/><path class="a" d="M33.75,34.63a7.61,7.61,0,0,0-1-.35c.2-3.18-4.15-3.52-3.52-6C31.53,29.59,33.5,31.25,33.75,34.63Z"/><path class="b" d="M32.68,15.53l.49.09C29.75,19.81,22.93,23.26,17.39,22c.55-2.85-1.19-6.24-2.86-7.8,1.19-1.16,2,.13,3.47-.16,1.25-.27,2.25-2.29.61-3.2a4.49,4.49,0,0,0-2.95.33c-.58.35-.73,2.2-1.54,2.35-1.81-3-3.81-2.95-2.56-4.31,1.06-1.49-2.45-2-1.47-3.81,2.45,3.25,8,3.1,10.43-.2,1.87.94,3.06.56,5.45,1.71.07.81.67,2.15.17,3.35a26.47,26.47,0,0,0-2.72,1.84c.18,1.57,2.52,1.83,2.83,4.41a.22.22,0,0,0,0,.08C28,15,30.86,15.28,32.68,15.53Z"/><path d="M26.47,10.66a4.89,4.89,0,0,1-1.8,1.58c1.92.34,2,3.32,2,3.32s.69-3.33,5.06-.91c-1.18-1.69-1.83-2.05-1-3.39a2.88,2.88,0,0,1,.27.22c-.91,1.4,1.62,2.16,1.36,3.83-3.94-1.68-3.9-1.4-6.07,1.2-.35-3-.59-3.46-2.7-4.36a3.71,3.71,0,0,0,2.58-1.89,6,6,0,0,1,.64-.35A2.76,2.76,0,0,1,26.47,10.66Z"/><path class="b" d="M32.33,15.31c.26-1.67-2.27-2.43-1.37-3.83a7,7,0,0,1,1.73,4c-1.83-.25-4.68-.51-6.43,1.06a.22.22,0,0,1,0-.08h0C28.43,13.91,28.38,13.64,32.33,15.31Z"/><path class="c" d="M30.8,11.1l-.1.16A1.48,1.48,0,0,0,29.61,11c-.25-.13-.34-.52-.5-.86A10.34,10.34,0,0,0,30.8,11.1Z"/><path class="c" d="M26.47,10.66a2.83,2.83,0,0,0,.31-.74c.93-.45,1.48-.5,1.82-.36a3.12,3.12,0,0,0,.5.53c.17.34.25.73.5.86a1.5,1.5,0,0,1,1.1.31c-.84,1.34-.2,1.7,1,3.39-4.37-2.41-5.05.91-5.05.91s-.05-3-2-3.32A4.84,4.84,0,0,0,26.47,10.66Z"/><path class="a" d="M26,30.07a14.33,14.33,0,0,0,6.68,4.21C29.81,33.54,27.09,33.32,26,30.07Z"/><path d="M29.1,10.09a3.12,3.12,0,0,1-.5-.53A.93.93,0,0,1,29.1,10.09Z"/><path class="a" d="M27.29,21.58c1.05,1.39,1.23,2,1.19,4.62A3.57,3.57,0,0,0,26,29.78c-.1-2.1.33-3.51,1.69-4.16C27.75,23,28.25,22.9,27.29,21.58Z"/><path class="c" d="M28.6,9.56c-.34-.15-.89-.09-1.82.36a9.52,9.52,0,0,1,.65-2.29A16,16,0,0,0,28.6,9.56Z"/><path class="b" d="M27.08,73.13C27.4,77,28.15,81,28.53,84.52c-3.6-1.12-2.47-7-2.88-11.26Z"/><path class="c" d="M26.36,22c2.14,2.18-1.2,4.14-1.4,6.33a5.47,5.47,0,0,0,.52,2.9l-1.14.19c-.56-1.1-1-2-.69-2.65-1.55-1.57-2-3.8-5-4-1.16,1.19.21,2.94-1.4,3.87.55.66,1.38-.5,2.12.35-.67,5.12,4.14,4.75,4.92,8.42-1.09-1.08-1.08.7-1.75,1.06-3.2,0-3.9-2.42-6-3.51-.06-1,1-.88,1.4-1.41-1.21-1.24-1.24-3.66-2.8-4.56a48.08,48.08,0,0,1,.69-6C18.91,22.76,22.67,23.13,26.36,22Z"/><path class="b" d="M26.26,16.52h0c-.31-2.59-2.65-2.85-2.83-4.42a27.61,27.61,0,0,1,2.72-1.84,3.72,3.72,0,0,1-2.59,1.9C25.67,13.05,25.9,13.48,26.26,16.52Z"/><path class="a" d="M22.45,31.86c1.1.29,2.43.75,2.66,4.1-2.36-1.44-4.56-3.86-4.71-4.48,0-.05,0-.1,0-.16.07-1.68-2.14-4.66.69-4.76a1.34,1.34,0,0,1,0,.2c-.1,1-1,.65-.38,3.08a2.36,2.36,0,0,0,.39,1.29c1-.7-.12-2.19,0-3.16,1.25.05,1.63,1.37,1.73,2.51A9.39,9.39,0,0,0,22.45,31.86Z"/><path class="a" d="M21.1,28c2.32-.3,2.1,1.23,1.73,2.5C22.73,29.34,22.35,28,21.1,28Z"/><path class="a" d="M20.71,29.83q.13.54.39,1.29A2.36,2.36,0,0,1,20.71,29.83Z"/><path d="M21.09,26.75c0,1-.41,2.1-.38,3.09C20.09,27.41,21,27.78,21.09,26.75Z"/><path class="a" d="M21.1,26.56c-2.83.09-.62,3.07-.69,4.76C20.41,29.48,17,24,21.1,26.56Z"/><path class="c" d="M18.21,11.2c.88.56,1.25,1.57-.42,2.35-1.6.6-3-1.11-1.63-1.93A2.18,2.18,0,0,1,18.21,11.2Z"/><path class="c" d="M19.68,4.79C18.3,9.64,9,7.13,10.19,2.69c1.58.28,1.25,2.5,2.46,3.15C15.21,7.1,17.85,6.1,19.68,4.79Z"/><path class="b" d="M19.13,4.7c-3.84,2.24-6.84,1.47-8.62-3.14C13.41,2.25,16.6,4.05,19.13,4.7Z"/><path class="c" d="M8.41,7.06c.7-.6,3.23.71,2.84,1.94-.32-.85-1.41-2-2.11-1.4a1.65,1.65,0,0,0,.53,1.14A2.48,2.48,0,0,1,8.41,7.06Z"/><path class="c" d="M11.25,9l-.09.06A1.57,1.57,0,0,1,9.2,8a1.76,1.76,0,0,1-.06-.4C9.84,7,10.93,8.15,11.25,9Z"/><path class="d" d="M9.67,8.73a1.65,1.65,0,0,0,1.49.33A1.26,1.26,0,0,1,9.67,8.73Z"/><path class="b" d="M9.64,1.44c.14,1.5.81,4.69-.73,5.05C6.3,6.33,3.23,2.85,1,2.26,1.3.94,4.1-.1,9.64,1.44Z"/></svg>